<?xml version="1.0" encoding="UTF-8" standalone="no"?><svg xmlns="http://www.w3.org/2000/svg" xmlns:xlink="http://www.w3.org/1999/xlink" fill="#000000" height="77.6" preserveAspectRatio="xMidYMid meet" version="1" viewBox="5.8 -0.3 368.6 77.6" width="368.6" zoomAndPan="magnify"><g id="change1_1"><path d="M369-0.3c-3,0-5.4,2.4-5.4,5.4c0,0.1,0,0.2,0,0.3H206.6l-60.7,65.5H16.5c-0.5-2.5-2.6-4.4-5.3-4.4 c-3,0-5.4,2.4-5.4,5.4s2.4,5.4,5.4,5.4c2.7,0,4.9-2,5.3-4.6h130.2l60.7-65.5h156.7c0.8,1.9,2.7,3.3,4.9,3.3c3,0,5.4-2.4,5.4-5.4 S372-0.3,369-0.3z" fill="#cee130"/></g></svg>