<svg xmlns="http://www.w3.org/2000/svg" xmlns:xlink="http://www.w3.org/1999/xlink" width="1366" zoomAndPan="magnify" viewBox="0 0 1024.5 576" height="768" preserveAspectRatio="xMidYMid meet" version="1.0"><defs><clipPath id="89f0c519ba"><path d="M 42.644531 157.394531 L 1024 157.394531 L 1024 393.644531 L 42.644531 393.644531 Z M 42.644531 157.394531 " clip-rule="nonzero"/></clipPath></defs><g clip-path="url(#89f0c519ba)"><path fill="#cee130" d="M 58.839844 157.796875 C 67.929688 157.796875 75.199219 165.078125 75.199219 174.179688 C 75.199219 174.484375 75.199219 174.785156 75.199219 175.089844 L 550.863281 175.089844 L 734.769531 373.824219 L 1126.8125 373.824219 C 1128.328125 366.238281 1134.691406 360.472656 1142.871094 360.472656 C 1151.957031 360.472656 1159.230469 367.753906 1159.230469 376.855469 C 1159.230469 385.957031 1151.957031 393.242188 1142.871094 393.242188 C 1134.691406 393.242188 1128.023438 387.171875 1126.8125 379.285156 L 732.34375 379.285156 L 548.441406 180.550781 L 73.6875 180.550781 C 71.261719 186.316406 65.507812 190.5625 58.839844 190.5625 C 49.75 190.5625 42.480469 183.28125 42.480469 174.179688 C 42.480469 165.078125 49.75 157.796875 58.839844 157.796875 Z M 58.839844 157.796875 " fill-opacity="1" fill-rule="nonzero"/></g></svg>