<svg xmlns="http://www.w3.org/2000/svg" xmlns:xlink="http://www.w3.org/1999/xlink" width="1366" zoomAndPan="magnify" viewBox="0 0 1024.5 576" height="768" preserveAspectRatio="xMidYMid meet" version="1.0"><defs><clipPath id="4cd8edc68d"><path d="M 0 190.539062 L 890.214844 190.539062 L 890.214844 423.789062 L 0 423.789062 Z M 0 190.539062 " clip-rule="nonzero"/></clipPath></defs><g clip-path="url(#4cd8edc68d)"><path fill="#cee130" d="M 874.054688 190.9375 C 865.074219 190.9375 857.890625 198.128906 857.890625 207.113281 C 857.890625 207.414062 857.890625 207.710938 857.890625 208.011719 L 387.976562 208.011719 L 206.296875 404.222656 L -181.007812 404.222656 C -182.503906 396.734375 -188.789062 391.042969 -196.871094 391.042969 C -205.851562 391.042969 -213.035156 398.230469 -213.035156 407.21875 C -213.035156 416.203125 -205.851562 423.394531 -196.871094 423.394531 C -188.789062 423.394531 -182.207031 417.402344 -181.007812 409.613281 L 208.691406 409.613281 L 390.371094 213.40625 L 859.386719 213.40625 C 861.78125 219.097656 867.46875 223.289062 874.054688 223.289062 C 883.03125 223.289062 890.214844 216.101562 890.214844 207.113281 C 890.214844 198.128906 883.03125 190.9375 874.054688 190.9375 Z M 874.054688 190.9375 " fill-opacity="1" fill-rule="nonzero"/></g></svg>